# xmcd CD database file
#
# Track frame offsets:
#	150
#	17921
#	37181
#	60015
#	90970
#	112478
#	131064
#	156178
#	180290
#	208682
#	230523
#	251389
#	264205
#	280134
#	296079
#
# Disc length: 4380 seconds
#
# Revision: 0
# Processed by: cddbd v1.5.1PL0 Copyright (c) Steve Scherf et al.
# Submitted via: CDex 1.51
#
DISCID=cf111a0f
DTITLE=Louis Armstrong - At Symphony Hall
DYEAR=2003
DGENRE=Jazz
TTITLE0=Mahogany Hall Stomp
TTITLE1=Black And Blue
TTITLE2=Royal Garden Blues
TTITLE3=On The Sunny Side Of The Street
TTITLE4=Tea For Two
TTITLE5=Since I Fell For You
TTITLE6=Body And Soul
TTITLE7=Stars Fell From Alabama
TTITLE8=Muskrat Ramble
TTITLE9=That's My Desire
TTITLE10=I Cried For You
TTITLE11=Baby, Won't You Please Come Home
TTITLE12=C Jam Blues
TTITLE13=High Society
TTITLE14=Steak Face
EXTD=YEAR: 2003
EXTT0=
EXTT1=
EXTT2=
EXTT3=
EXTT4=
EXTT5=
EXTT6=
EXTT7=
EXTT8=
EXTT9=
EXTT10=
EXTT11=
EXTT12=
EXTT13=
EXTT14=
PLAYORDER=
